<svg id="Layer_1" data-name="Layer 1" xmlns="http://www.w3.org/2000/svg" viewBox="0 0 351.65 130.25"><defs><style>.cls-1{fill:#2563eb;}</style></defs><path class="cls-1" d="M318.63,249.31a21.87,21.87,0,0,0-7.65-1.19,11.64,11.64,0,0,0-7.19,2,6.1,6.1,0,0,0-2.71,5,9,9,0,0,0,1,4.62,8.28,8.28,0,0,0,3.1,2.84,39.77,39.77,0,0,0,7.92,3c3.08.84,5.36,1.5,6.86,2a42.06,42.06,0,0,1,5.61,2.44,16.9,16.9,0,0,1,5.08,3.7,17.52,17.52,0,0,1,4.61,12.53q0,9.9-7.19,15.5t-18.27,5.61q-16.1,0-24.27-4.09V284.93l11.87-.92v6.33q0,5.81,11.08,5.8t11.08-8a6.32,6.32,0,0,0-1.91-4.75,10.79,10.79,0,0,0-3.76-2.51c-1.23-.44-2.7-.88-4.42-1.32s-3.39-.88-5-1.32a49.05,49.05,0,0,1-5.28-1.78,39.59,39.59,0,0,1-6.26-3.23q-6.74-4.35-6.73-14.58t7.25-15.76q7.26-5.55,18.27-5.54a49.46,49.46,0,0,1,21.84,5.27v15.83l-11.88.93V253.8A4.43,4.43,0,0,0,318.63,249.31Z" transform="translate(-99.03 -209.61)"/><path class="cls-1" d="M371.4,237.31q9.89,0,15.7,4.81t5.8,13.52a20.38,20.38,0,0,1-2.51,10.23,20.1,20.1,0,0,1-6.2,6.92,32.08,32.08,0,0,1-9,4.09,69.53,69.53,0,0,1-19.92,2.64,17.54,17.54,0,0,0,4.36,11.28q4,4.29,12.13,4.29t16.36-5.81l5,10.69q-2.64,2.37-8.91,4.88A38.33,38.33,0,0,1,370,307.36q-16.09,0-23.62-8.91T338.81,274q0-15.57,8.58-26.12T371.4,237.31Zm-6,30.14a21.52,21.52,0,0,0,8.9-3.82c2.73-2,4.09-4.34,4.09-7.06q0-8.06-7.92-8a12.87,12.87,0,0,0-11.34,5.87,26.92,26.92,0,0,0-4.35,14.05A70.55,70.55,0,0,0,365.4,267.45Z" transform="translate(-99.03 -209.61)"/><path class="cls-1" d="M417,289.15q4.23,6.21,12.21,6.2T445,289.68l5.67,10.16q-9.36,7.65-23.48,7.65T405,298.59q-8.12-8.91-8.11-26.32t9.3-26.19q9.3-8.78,21-8.77a45,45,0,0,1,21.71,5.41v17.15l-12.14.92v-6.33q0-3.57-2.57-4.42a16.89,16.89,0,0,0-5.35-.86q-16,0-16,22.56Q412.82,283,417,289.15Z" transform="translate(-99.03 -209.61)"/><path class="cls-1" d="M274.12,287.3q-8.17,5.82-16.36,5.81a25.15,25.15,0,0,1-3.33-.2l-.63-.09a13.51,13.51,0,0,1-8.17-4,17.42,17.42,0,0,1-4.35-11.13c0-.05,0-.09,0-.14,1.58,0,3.11-.05,4.62-.12.21,0,.42,0,.63-.05a64.36,64.36,0,0,0,14.67-2.47,32.66,32.66,0,0,0,9-4.09,18.46,18.46,0,0,0,2.19-1.75c.23-.22.46-.44.68-.67a22,22,0,0,0,3.33-4.51,20.36,20.36,0,0,0,2.51-10.23q0-8.7-5.81-13.51t-15.69-4.82a35.46,35.46,0,0,0-10.85,1.57v13.72l.18-.2.47-.46a13.05,13.05,0,0,1,9.27-3.42q7.92,0,7.92,8.05a7.83,7.83,0,0,1-2.45,5.65l-.27.28a13.08,13.08,0,0,1-1.37,1.13,21.32,21.32,0,0,1-8.91,3.82c-1.54.28-3.15.5-4.84.65l-.63.07c-1.62.14-3.29.23-5,.27V209.61H216.31V220l5.67.39c2.29.18,3.44,1.23,3.44,3.17v13.32l-.13,0-.4-.12a36.08,36.08,0,0,0-9-1.41l-1.41,0h-.83q-10.5.24-17.72,5.52h0l.1.12.2.25a34.63,34.63,0,0,1,5.43,10.54c.2.61.4,1.23.58,1.87l.16.61.26-.45a13.25,13.25,0,0,1,6.61-5.91l.51-.19h0c6.07-2.28,12.77.05,14.92.92.46.19.71.31.71.31v15a50.1,50.1,0,0,0-.64,8.08,52.36,52.36,0,0,0,.64,8.45,32,32,0,0,0,6.88,16,23.4,23.4,0,0,0,11.16,7.19,39.17,39.17,0,0,0,10.34,1.68h.63c.49,0,1,0,1.49,0a38.53,38.53,0,0,0,14.31-2.5q6.09-2.44,8.75-4.76l.15-.13Z" transform="translate(-99.03 -209.61)"/><path class="cls-1" d="M221.85,290.67a13,13,0,0,1-8.42,3.09h-.84a5.52,5.52,0,0,1-.58,0c-5,.54-8.49-2.08-10.73-6.28l0,.06c-.09-.15-.17-.3-.25-.45q-2.38-4.51-2.8-12.06.28-3,.29-6.32c0-.34,0-.67,0-1v0c0-.25,0-.49,0-.73s0-.73,0-1.08a44.39,44.39,0,0,0-2.1-12.27,29.41,29.41,0,0,0-4.58-8.94l0,0-.05-.07-.2-.23c-.15-.19-.31-.37-.48-.55a21,21,0,0,0-3.49-3l0,0a32.84,32.84,0,0,0-5.05-2.89,24.43,24.43,0,0,0-5.72-1.84,25.32,25.32,0,0,0-2.56-.42c-.45-.06-.9-.1-1.36-.14l-.92-.08c-.93-.06-1.88-.09-2.88-.09s-1.84,0-2.75.12a32.78,32.78,0,0,0-15.41,5.22c-.86.55-1.71,1.14-2.55,1.78a25.92,25.92,0,0,0-7.78,11,37.28,37.28,0,0,0-1.67,5.33h0a50.42,50.42,0,0,0-1.24,11.61q0,12.49,4,20.59a24.63,24.63,0,0,1-5.4,1.84h0a22.43,22.43,0,0,1-4.81.53q-8,0-12.2-6.2T115,269.76q0-22.56,16-22.56a16.87,16.87,0,0,1,5.34.86c.13.05.27.1.39.16.19-.38.38-.75.59-1.11s.24-.44.37-.65.2-.37.31-.54l.44-.72c.15-.24.31-.48.47-.71.47-.72,1-1.4,1.48-2l.5-.61c.21-.25.43-.5.65-.74s.6-.66.92-1,.41-.42.62-.61l.58-.52s0,0,0,0c.19-.17.37-.34.57-.5l.6-.49h0a45.45,45.45,0,0,0-15.53-2.65q-11.69,0-21,8.77T99,270.29q0,17.41,8.12,26.32t22.22,8.91a40.52,40.52,0,0,0,14.35-2.42h0a32.61,32.61,0,0,0,5.6-2.73,25.35,25.35,0,0,0,8.79,4.19c.47.13.95.24,1.43.34s1.11.22,1.69.31h0c.7.11,1.41.21,2.14.27.37,0,.74.06,1.12.09.81,0,1.64.07,2.48.07s1.74,0,2.59-.08c.47,0,.94-.07,1.4-.12.87-.09,1.73-.22,2.56-.37l1.09-.22c.46-.1.91-.21,1.36-.33l.47-.15a3.32,3.32,0,0,0,.49-.14l.71-.23.17-.05.46-.16.51-.2.68-.27.47-.19,1-.47c.34-.17.68-.34,1-.52l.28-.16a2.29,2.29,0,0,0,.27-.14l.22-.13.12-.06.33-.2c.48-.27,1-.56,1.43-.88l0,0-.27-.29-.19-.35q-.57-.81-1.08-1.65c-.25-.42-.51-.86-.75-1.29l-.06-.11c-.22-.4-.43-.81-.64-1.22l-.06-.1c-.2-.4-.39-.81-.58-1.22,0-.09-.09-.19-.13-.28-.15-.32-.29-.64-.42-1a3.71,3.71,0,0,1-.19-.46c-.17-.39-.32-.79-.46-1.19a.35.35,0,0,1-.05-.13c-.18-.47-.35-1-.51-1.45s-.32-1-.47-1.52h0l0-.05a10.26,10.26,0,0,1-.78,1.13c-.12.18-.27.35-.41.52a11.75,11.75,0,0,1-1.46,1.45l-.37.3-.05,0-.48.34h0a5.69,5.69,0,0,1-.52.33q-.27.17-.54.3c-.18.1-.36.18-.54.26l-.06,0a4.34,4.34,0,0,1-.5.2l-.64.24-.39.12-.4.1c-.16.05-.33.08-.5.12l-.68.12-.54.07c-.32,0-.65.07-1,.08s-.59,0-.88,0c-.55,0-1.08,0-1.59-.07a12.05,12.05,0,0,1-5.88-2q-6.87-4.74-6.87-23.34,0-10,3.57-15.84a11.65,11.65,0,0,1,5-4.57l.12,0,.13-.06.1-.05.23-.09a8.33,8.33,0,0,1,1-.36,11.82,11.82,0,0,1,1.24-.31c.23-.05.46-.09.7-.12h0c.54-.08,1.09-.14,1.66-.17l.89,0,.93,0a15.46,15.46,0,0,1,2.44.32,10.77,10.77,0,0,1,7.44,5.72c.21.39.4.78.58,1.2h0a36.05,36.05,0,0,1,2.54,12.31c.07,1.22.1,2.51.11,3.85,0,.15,0,.3,0,.46,0,.69,0,1.37,0,2h.09v.21q0,13.19,5.53,22.29a17.69,17.69,0,0,0,1.05,1.56s0,0,0,0a18.82,18.82,0,0,0,4,4h0q5.76,4.24,15.13,4.44h1.55c7-.15,12.4-2.81,16.21-8a34.73,34.73,0,0,1-3.68-7C222.1,290.45,222,290.57,221.85,290.67Z" transform="translate(-99.03 -209.61)"/><path class="cls-1" d="M228,300.13c-.2-.23-.39-.46-.58-.71v4.24h4.16A26.54,26.54,0,0,1,228,300.13Z" transform="translate(-99.03 -209.61)"/><path class="cls-1" d="M165.17,331.3h-1.88a2.76,2.76,0,0,0-.41-1.06,2.83,2.83,0,0,0-.72-.78,3.12,3.12,0,0,0-1-.49,4.1,4.1,0,0,0-1.12-.16,3.46,3.46,0,0,0-1.91.54,3.54,3.54,0,0,0-1.33,1.58,5.86,5.86,0,0,0-.49,2.53,6,6,0,0,0,.49,2.56,3.43,3.43,0,0,0,3.23,2.1,3.79,3.79,0,0,0,1.12-.16,3.32,3.32,0,0,0,1-.48,3,3,0,0,0,.72-.77,2.89,2.89,0,0,0,.42-1h1.88a5,5,0,0,1-.58,1.68,4.7,4.7,0,0,1-1.11,1.32,5.19,5.19,0,0,1-1.53.85,5.76,5.76,0,0,1-1.89.3,5.36,5.36,0,0,1-2.86-.76,5.27,5.27,0,0,1-2-2.19,7.37,7.37,0,0,1-.73-3.41,7.45,7.45,0,0,1,.73-3.4,5.27,5.27,0,0,1,2-2.19,5.39,5.39,0,0,1,2.86-.76,5.77,5.77,0,0,1,1.84.28,5.07,5.07,0,0,1,1.54.82,4.66,4.66,0,0,1,1.13,1.32A5,5,0,0,1,165.17,331.3Z" transform="translate(-99.03 -209.61)"/><path class="cls-1" d="M185,333.46a7.34,7.34,0,0,1-.73,3.41,5.27,5.27,0,0,1-2,2.19,5.42,5.42,0,0,1-7.72-2.19,8.41,8.41,0,0,1,0-6.81,5.56,5.56,0,0,1,7.72-2.19,5.27,5.27,0,0,1,2,2.19A7.32,7.32,0,0,1,185,333.46Zm-1.85,0a5.87,5.87,0,0,0-.49-2.54,3.51,3.51,0,0,0-1.33-1.57,3.63,3.63,0,0,0-3.81,0,3.57,3.57,0,0,0-1.33,1.57,6.85,6.85,0,0,0,0,5.09,3.57,3.57,0,0,0,1.33,1.57,3.63,3.63,0,0,0,3.81,0,3.51,3.51,0,0,0,1.33-1.57A5.89,5.89,0,0,0,183.12,333.46Z" transform="translate(-99.03 -209.61)"/><path class="cls-1" d="M198.1,339.65h-4V327.28h4.13a6.2,6.2,0,0,1,3.13.74,4.94,4.94,0,0,1,2,2.12,8.15,8.15,0,0,1,0,6.63,4.94,4.94,0,0,1-2,2.14A6.47,6.47,0,0,1,198.1,339.65ZM196,338h2a4.75,4.75,0,0,0,2.35-.53,3.33,3.33,0,0,0,1.4-1.56,6.82,6.82,0,0,0,0-4.95,3.32,3.32,0,0,0-1.38-1.55,4.47,4.47,0,0,0-2.26-.52H196Z" transform="translate(-99.03 -209.61)"/><path class="cls-1" d="M213.19,339.65V327.28H221v1.6h-5.9v3.78h5.49v1.6h-5.49v3.79h6v1.6Z" transform="translate(-99.03 -209.61)"/><path class="cls-1" d="M237,330.53a1.81,1.81,0,0,0-.8-1.34,3.15,3.15,0,0,0-1.77-.47,3.29,3.29,0,0,0-1.31.24,2.07,2.07,0,0,0-.86.65,1.52,1.52,0,0,0-.31.94,1.33,1.33,0,0,0,.21.76,1.67,1.67,0,0,0,.55.54,4.5,4.5,0,0,0,.73.36c.26.09.52.17.76.23l1.21.31a10.57,10.57,0,0,1,1.21.39,5.11,5.11,0,0,1,1.16.66,3.2,3.2,0,0,1,.86,1,2.93,2.93,0,0,1,.33,1.43,3.31,3.31,0,0,1-.54,1.87,3.75,3.75,0,0,1-1.57,1.29,6,6,0,0,1-2.47.47,6.1,6.1,0,0,1-2.41-.44,3.66,3.66,0,0,1-1.59-1.26,3.61,3.61,0,0,1-.63-1.93h1.87a1.91,1.91,0,0,0,.44,1.12,2.36,2.36,0,0,0,1,.66,4,4,0,0,0,1.32.21,3.66,3.66,0,0,0,1.41-.25,2.33,2.33,0,0,0,1-.7,1.64,1.64,0,0,0,.36-1.06,1.36,1.36,0,0,0-.31-.9,2.55,2.55,0,0,0-.84-.58,9.36,9.36,0,0,0-1.2-.4l-1.46-.4a5.65,5.65,0,0,1-2.35-1.19,2.67,2.67,0,0,1-.87-2.08,3.08,3.08,0,0,1,.58-1.87,3.9,3.9,0,0,1,1.57-1.24,5.53,5.53,0,0,1,2.24-.44,5.24,5.24,0,0,1,2.22.44,3.76,3.76,0,0,1,1.52,1.21,3.09,3.09,0,0,1,.58,1.77Z" transform="translate(-99.03 -209.61)"/><path class="cls-1" d="M248,339.65V327.28h7.76v1.6h-5.89v3.78h5.49v1.6h-5.49v3.79h6v1.6Z" transform="translate(-99.03 -209.61)"/><path class="cls-1" d="M275.36,331.3h-1.88a2.76,2.76,0,0,0-.41-1.06,2.68,2.68,0,0,0-.72-.78,3.12,3.12,0,0,0-1-.49,4,4,0,0,0-1.12-.16,3.46,3.46,0,0,0-1.91.54,3.6,3.6,0,0,0-1.33,1.58,5.86,5.86,0,0,0-.49,2.53A6,6,0,0,0,267,336a3.63,3.63,0,0,0,1.33,1.57,3.53,3.53,0,0,0,1.9.53,3.75,3.75,0,0,0,1.12-.16,3.32,3.32,0,0,0,1-.48,3,3,0,0,0,.73-.77,3.07,3.07,0,0,0,.41-1h1.88a5,5,0,0,1-.58,1.68,4.84,4.84,0,0,1-1.1,1.32,5.24,5.24,0,0,1-1.54.85,5.76,5.76,0,0,1-1.89.3,5.39,5.39,0,0,1-2.86-.76,5.27,5.27,0,0,1-2-2.19,8.41,8.41,0,0,1,0-6.81,5.2,5.2,0,0,1,4.84-2.95,5.77,5.77,0,0,1,1.84.28,5,5,0,0,1,1.54.82,4.5,4.5,0,0,1,1.13,1.32A5,5,0,0,1,275.36,331.3Z" transform="translate(-99.03 -209.61)"/><path class="cls-1" d="M304.1,331.19a3.77,3.77,0,0,0-.47-1,3.3,3.3,0,0,0-.69-.75A2.93,2.93,0,0,0,302,329a4,4,0,0,0-1.13-.16,3.42,3.42,0,0,0-1.89.54,3.61,3.61,0,0,0-1.32,1.57,6.83,6.83,0,0,0,0,5.08,3.62,3.62,0,0,0,1.34,1.58,3.56,3.56,0,0,0,1.94.54,3.63,3.63,0,0,0,1.76-.41,2.87,2.87,0,0,0,1.17-1.17,3.56,3.56,0,0,0,.41-1.77l.49.09h-3.54v-1.54h4.86v1.41a5.3,5.3,0,0,1-.66,2.7,4.46,4.46,0,0,1-1.83,1.77,6,6,0,0,1-5.6-.15,5.23,5.23,0,0,1-2-2.2,7.53,7.53,0,0,1-.7-3.38,7.9,7.9,0,0,1,.41-2.66,5.86,5.86,0,0,1,1.15-2,5.09,5.09,0,0,1,1.76-1.26,5.43,5.43,0,0,1,2.22-.44,6,6,0,0,1,1.87.29,5.27,5.27,0,0,1,1.55.84,5.1,5.1,0,0,1,1.12,1.29,4.86,4.86,0,0,1,.61,1.66Z" transform="translate(-99.03 -209.61)"/><path class="cls-1" d="M315.28,339.65V327.28h1.87v10.77h5.6v1.6Z" transform="translate(-99.03 -209.61)"/><path class="cls-1" d="M342,333.46a7.34,7.34,0,0,1-.73,3.41,5.27,5.27,0,0,1-2,2.19,5.42,5.42,0,0,1-7.72-2.19,8.41,8.41,0,0,1,0-6.81,5.56,5.56,0,0,1,7.72-2.19,5.27,5.27,0,0,1,2,2.19A7.32,7.32,0,0,1,342,333.46Zm-1.85,0a5.87,5.87,0,0,0-.49-2.54,3.57,3.57,0,0,0-1.33-1.57,3.63,3.63,0,0,0-3.81,0,3.57,3.57,0,0,0-1.33,1.57,6.85,6.85,0,0,0,0,5.09,3.57,3.57,0,0,0,1.33,1.57,3.63,3.63,0,0,0,3.81,0,3.57,3.57,0,0,0,1.33-1.57A5.89,5.89,0,0,0,340.11,333.46Z" transform="translate(-99.03 -209.61)"/><path class="cls-1" d="M351.09,339.65V327.28h4.53a4.84,4.84,0,0,1,2.18.43,3,3,0,0,1,1.29,1.16,3.21,3.21,0,0,1,.43,1.66,2.72,2.72,0,0,1-.28,1.3,2.4,2.4,0,0,1-.76.85,3.48,3.48,0,0,1-1,.46v.12a2.42,2.42,0,0,1,1.2.4,2.78,2.78,0,0,1,1,1,3.2,3.2,0,0,1,.39,1.63,3.28,3.28,0,0,1-.45,1.71,3,3,0,0,1-1.37,1.19,5.53,5.53,0,0,1-2.36.43Zm1.86-7h2.51a2.6,2.6,0,0,0,1.13-.24,2,2,0,0,0,.8-.68,1.79,1.79,0,0,0,.3-1,1.69,1.69,0,0,0-.54-1.28,2.25,2.25,0,0,0-1.65-.52H353Zm0,5.42h2.7a2.85,2.85,0,0,0,1.92-.52,1.65,1.65,0,0,0,.58-1.3,2,2,0,0,0-1.14-1.85,2.62,2.62,0,0,0-1.29-.29H353Z" transform="translate(-99.03 -209.61)"/><path class="cls-1" d="M370.07,339.65h-2l4.45-12.37h2.16l4.46,12.37h-2l-3.5-10.13h-.09Zm.33-4.84h6.44v1.57H370.4Z" transform="translate(-99.03 -209.61)"/><path class="cls-1" d="M387.75,339.65V327.28h1.86v10.77h5.61v1.6Z" transform="translate(-99.03 -209.61)"/></svg>