<svg width="800" height="400" viewBox="0 0 800 400" xmlns="http://www.w3.org/2000/svg"><defs><pattern id="satori_pattern_id_0" x="0" y="0" width="1" height="1" patternUnits="objectBoundingBox"><linearGradient id="satori_biid_0" x1="0" y1="0" x2="0" y2="1"><stop offset="0%" stop-color="#ddddff"/><stop offset="100%" stop-color="#ffffff"/></linearGradient><rect x="0" y="0" width="800" height="400" fill="url(#satori_biid_0)"/></pattern></defs><mask id="satori_om-id"><rect x="0" y="0" width="800" height="400" fill="#fff"/></mask><rect x="0" y="0" width="800" height="400" fill="url(#satori_pattern_id_0)"/><mask id="satori_om-id-0"><rect x="172" y="146" width="456" height="72" fill="#fff"/></mask><path fill="black" d="M194.3 170.5L183.3 204.1L173.4 204.1L188.5 160.5L200.4 160.5L215.4 204.1L205.5 204.1L194.6 170.5L194.3 170.5ZM182.7 194.2L182.7 187.0L206.0 187.0L206.0 194.2L182.7 194.2ZM229.0 204.7L229.0 204.7Q225.3 204.7 222.3 202.7Q219.3 200.8 217.5 197.0Q215.7 193.3 215.7 187.8L215.7 187.8Q215.7 182.2 217.6 178.4Q219.4 174.7 222.4 172.8Q225.4 171.0 229.0 171.0L229.0 171.0Q231.7 171.0 233.6 171.9Q235.4 172.8 236.6 174.2Q237.7 175.6 238.3 176.9L238.3 176.9L238.6 176.9L238.6 160.5L247.6 160.5L247.6 204.1L238.7 204.1L238.7 198.9L238.3 198.9Q237.7 200.2 236.5 201.6Q235.3 202.9 233.5 203.8Q231.7 204.7 229.0 204.7ZM231.9 197.4L231.9 197.4Q234.1 197.4 235.6 196.2Q237.1 195.0 238.0 192.9Q238.8 190.7 238.8 187.8L238.8 187.8Q238.8 184.8 238.0 182.7Q237.2 180.5 235.6 179.4Q234.1 178.2 231.9 178.2L231.9 178.2Q229.7 178.2 228.1 179.4Q226.6 180.6 225.8 182.8Q225.0 184.9 225.0 187.8L225.0 187.8Q225.0 190.6 225.8 192.8Q226.6 195.0 228.1 196.2Q229.7 197.4 231.9 197.4ZM262.2 185.2L262.2 185.2L262.2 204.1L253.1 204.1L253.1 160.5L261.9 160.5L261.9 177.2L262.3 177.2Q263.4 174.3 265.9 172.6Q268.3 171.0 272.1 171.0L272.1 171.0Q275.5 171.0 278.0 172.5Q280.6 173.9 282.0 176.7Q283.4 179.5 283.4 183.3L283.4 183.3L283.4 204.1L274.3 204.1L274.3 184.9Q274.3 181.9 272.8 180.2Q271.2 178.5 268.5 178.5L268.5 178.5Q266.6 178.5 265.2 179.3Q263.8 180.1 263.0 181.6Q262.2 183.1 262.2 185.2ZM297.6 185.2L297.6 185.2L297.6 204.1L288.5 204.1L288.5 160.5L297.4 160.5L297.4 177.2L297.7 177.2Q298.8 174.3 301.3 172.6Q303.8 171.0 307.5 171.0L307.5 171.0Q310.9 171.0 313.5 172.5Q316.0 173.9 317.4 176.7Q318.9 179.5 318.8 183.3L318.8 183.3L318.8 204.1L309.8 204.1L309.8 184.9Q309.8 181.9 308.2 180.2Q306.7 178.5 303.9 178.5L303.9 178.5Q302.1 178.5 300.6 179.3Q299.2 180.1 298.4 181.6Q297.6 183.1 297.6 185.2ZM333.3 204.7L333.3 204.7Q330.2 204.7 327.7 203.6Q325.3 202.5 323.9 200.4Q322.5 198.2 322.5 195.0L322.5 195.0Q322.5 192.3 323.5 190.4Q324.5 188.5 326.2 187.4Q327.9 186.3 330.1 185.7Q332.3 185.1 334.8 184.9L334.8 184.9Q337.6 184.6 339.4 184.3Q341.1 184.1 341.9 183.5Q342.7 183.0 342.7 182.0L342.7 182.0L342.7 181.8Q342.7 179.8 341.4 178.7Q340.1 177.6 337.8 177.6L337.8 177.6Q335.4 177.6 333.9 178.7Q332.5 179.8 332.0 181.4L332.0 181.4L323.6 180.7Q324.2 177.7 326.1 175.5Q328.0 173.3 331.0 172.2Q333.9 171.0 337.9 171.0L337.9 171.0Q340.6 171.0 343.1 171.6Q345.6 172.3 347.5 173.6Q349.5 174.9 350.6 177.0Q351.8 179.1 351.8 182.1L351.8 182.1L351.8 204.1L343.1 204.1L343.1 199.6L342.9 199.6Q342.1 201.1 340.8 202.3Q339.5 203.4 337.6 204.1Q335.8 204.7 333.3 204.7ZM335.9 198.5L335.9 198.5Q337.9 198.5 339.5 197.7Q341.0 196.9 341.9 195.5Q342.7 194.2 342.7 192.4L342.7 192.4L342.7 189.0Q342.3 189.2 341.6 189.5Q340.8 189.7 339.9 189.9Q339.0 190.0 338.1 190.2Q337.2 190.3 336.4 190.4L336.4 190.4Q334.8 190.7 333.6 191.2Q332.5 191.7 331.8 192.5Q331.1 193.4 331.1 194.7L331.1 194.7Q331.1 196.5 332.5 197.5Q333.8 198.5 335.9 198.5ZM365.9 204.1L356.8 204.1L356.8 171.4L365.5 171.4L365.5 177.2L365.8 177.2Q366.9 174.3 369.3 172.6Q371.6 171.0 375.0 171.0L375.0 171.0Q378.3 171.0 380.7 172.6Q383.1 174.3 383.8 177.2L383.8 177.2L384.2 177.2Q385.2 174.4 387.8 172.7Q390.5 171.0 394.1 171.0L394.1 171.0Q398.6 171.0 401.5 173.9Q404.4 176.8 404.4 182.1L404.4 182.1L404.4 204.1L395.3 204.1L395.3 183.9Q395.3 181.2 393.9 179.8Q392.4 178.5 390.2 178.5L390.2 178.5Q387.8 178.5 386.4 180.0Q385.0 181.6 385.0 184.1L385.0 184.1L385.0 204.1L376.2 204.1L376.2 183.7Q376.2 181.3 374.8 179.9Q373.4 178.5 371.2 178.5L371.2 178.5Q369.7 178.5 368.5 179.2Q367.3 180.0 366.6 181.3Q365.9 182.7 365.9 184.5L365.9 184.5L365.9 204.1Z M455.7 173.0L446.8 173.0Q446.6 170.5 444.6 169.0Q442.7 167.6 439.4 167.6L439.4 167.6Q437.1 167.6 435.5 168.2Q434.0 168.9 433.2 170.0Q432.3 171.1 432.3 172.5L432.3 172.5Q432.3 173.7 432.8 174.5Q433.4 175.4 434.3 176.0Q435.3 176.7 436.6 177.1Q437.8 177.6 439.3 177.9L439.3 177.9L443.2 178.8Q446.0 179.5 448.4 180.5Q450.8 181.6 452.5 183.2Q454.3 184.7 455.3 186.8Q456.2 188.9 456.3 191.7L456.3 191.7Q456.2 195.7 454.2 198.6Q452.2 201.5 448.4 203.1Q444.6 204.7 439.3 204.7L439.3 204.7Q434.0 204.7 430.1 203.1Q426.2 201.5 424.0 198.3Q421.8 195.1 421.7 190.4L421.7 190.4L430.7 190.4Q430.8 192.6 431.9 194.1Q433.0 195.5 434.9 196.3Q436.8 197.0 439.2 197.0L439.2 197.0Q441.6 197.0 443.3 196.3Q445.0 195.6 446.0 194.4Q446.9 193.2 446.9 191.6L446.9 191.6Q446.9 190.2 446.1 189.2Q445.2 188.2 443.6 187.5Q441.9 186.8 439.5 186.2L439.5 186.2L434.8 185.0Q429.3 183.6 426.1 180.8Q422.9 177.9 422.9 173.1L422.9 173.1Q422.9 169.1 425.0 166.2Q427.1 163.2 430.9 161.6Q434.6 159.9 439.4 159.9L439.4 159.9Q444.3 159.9 447.9 161.6Q451.5 163.2 453.6 166.2Q455.6 169.1 455.7 173.0L455.7 173.0ZM469.6 204.7L469.6 204.7Q466.5 204.7 464.0 203.6Q461.6 202.5 460.1 200.4Q458.7 198.2 458.7 195.0L458.7 195.0Q458.7 192.3 459.7 190.4Q460.7 188.5 462.5 187.4Q464.2 186.3 466.4 185.7Q468.6 185.1 471.0 184.9L471.0 184.9Q473.9 184.6 475.6 184.3Q477.4 184.1 478.2 183.5Q478.9 183.0 478.9 182.0L478.9 182.0L478.9 181.8Q478.9 179.8 477.7 178.7Q476.4 177.6 474.1 177.6L474.1 177.6Q471.6 177.6 470.2 178.7Q468.7 179.8 468.3 181.4L468.3 181.4L459.9 180.7Q460.5 177.7 462.4 175.5Q464.3 173.3 467.2 172.2Q470.2 171.0 474.1 171.0L474.1 171.0Q476.9 171.0 479.4 171.6Q481.9 172.3 483.8 173.6Q485.8 174.9 486.9 177.0Q488.0 179.1 488.0 182.1L488.0 182.1L488.0 204.1L479.4 204.1L479.4 199.6L479.2 199.6Q478.4 201.1 477.1 202.3Q475.7 203.4 473.9 204.1Q472.0 204.7 469.6 204.7ZM472.2 198.5L472.2 198.5Q474.2 198.5 475.7 197.7Q477.3 196.9 478.1 195.5Q479.0 194.2 479.0 192.4L479.0 192.4L479.0 189.0Q478.6 189.2 477.9 189.5Q477.1 189.7 476.2 189.9Q475.3 190.0 474.4 190.2Q473.5 190.3 472.7 190.4L472.7 190.4Q471.1 190.7 469.9 191.2Q468.7 191.7 468.1 192.5Q467.4 193.4 467.4 194.7L467.4 194.7Q467.4 196.5 468.8 197.5Q470.1 198.5 472.2 198.5ZM490.5 171.4L510.7 171.4L510.7 178.2L490.5 178.2L490.5 171.4ZM504.2 204.1L495.1 204.1L495.1 169.0Q495.1 165.5 496.5 163.1Q497.9 160.8 500.3 159.6Q502.8 158.4 505.8 158.4L505.8 158.4Q507.9 158.4 509.7 158.8Q511.4 159.1 512.3 159.3L512.3 159.3L510.6 166.2Q510.1 166.0 509.3 165.8Q508.5 165.7 507.7 165.7L507.7 165.7Q505.7 165.7 504.9 166.6Q504.2 167.5 504.2 169.2L504.2 169.2L504.2 204.1ZM530.3 204.1L520.7 204.1L511.8 171.4L520.9 171.4L526.0 193.4L526.3 193.4L531.6 171.4L540.6 171.4L546.0 193.3L546.3 193.3L551.2 171.4L560.4 171.4L551.5 204.1L541.9 204.1L536.3 183.5L535.9 183.5L530.3 204.1ZM572.6 204.7L572.6 204.7Q569.4 204.7 567.0 203.6Q564.5 202.5 563.1 200.4Q561.7 198.2 561.7 195.0L561.7 195.0Q561.7 192.3 562.7 190.4Q563.7 188.5 565.4 187.4Q567.1 186.3 569.4 185.7Q571.6 185.1 574.0 184.9L574.0 184.9Q576.8 184.6 578.6 184.3Q580.3 184.1 581.1 183.5Q581.9 183.0 581.9 182.0L581.9 182.0L581.9 181.8Q581.9 179.8 580.6 178.7Q579.4 177.6 577.1 177.6L577.1 177.6Q574.6 177.6 573.2 178.7Q571.7 179.8 571.2 181.4L571.2 181.4L562.8 180.7Q563.5 177.7 565.4 175.5Q567.2 173.3 570.2 172.2Q573.2 171.0 577.1 171.0L577.1 171.0Q579.8 171.0 582.3 171.6Q584.8 172.3 586.8 173.6Q588.7 174.9 589.9 177.0Q591.0 179.1 591.0 182.1L591.0 182.1L591.0 204.1L582.4 204.1L582.4 199.6L582.1 199.6Q581.3 201.1 580.0 202.3Q578.7 203.4 576.8 204.1Q575.0 204.7 572.6 204.7ZM575.2 198.5L575.2 198.5Q577.2 198.5 578.7 197.7Q580.2 196.9 581.1 195.5Q582.0 194.2 582.0 192.4L582.0 192.4L582.0 189.0Q581.5 189.2 580.8 189.5Q580.1 189.7 579.2 189.9Q578.2 190.0 577.3 190.2Q576.4 190.3 575.7 190.4L575.7 190.4Q574.1 190.7 572.9 191.2Q571.7 191.7 571.0 192.5Q570.4 193.4 570.4 194.7L570.4 194.7Q570.4 196.5 571.7 197.5Q573.1 198.5 575.2 198.5ZM605.1 185.2L605.1 185.2L605.1 204.1L596.0 204.1L596.0 171.4L604.7 171.4L604.7 177.2L605.1 177.2Q606.2 174.3 608.7 172.6Q611.3 171.0 614.9 171.0L614.9 171.0Q618.3 171.0 620.9 172.5Q623.4 174.0 624.8 176.7Q626.2 179.5 626.2 183.3L626.2 183.3L626.2 204.1L617.1 204.1L617.1 184.9Q617.2 181.9 615.6 180.2Q614.0 178.5 611.3 178.5L611.3 178.5Q609.5 178.5 608.1 179.3Q606.7 180.1 605.9 181.6Q605.1 183.1 605.1 185.2Z "/><clipPath id="satori_bct-id-1"><path d="M275.5 247.1L270.9 247.1L270.9 225.2L285.3 225.2L285.3 229.0L275.5 229.0L275.5 234.2L284.4 234.2L284.4 238.0L275.5 238.0L275.5 247.1ZM295.8 240.1L295.8 240.1L295.8 230.7L300.4 230.7L300.4 247.1L296.0 247.1L296.0 244.1L295.8 244.1Q295.3 245.5 294.0 246.4Q292.7 247.3 290.9 247.3L290.9 247.3Q289.2 247.3 288.0 246.5Q286.7 245.8 286.0 244.4Q285.3 243.0 285.3 241.1L285.3 241.1L285.3 230.7L289.9 230.7L289.9 240.3Q289.9 241.8 290.7 242.6Q291.4 243.4 292.7 243.4L292.7 243.4Q293.5 243.4 294.2 243.1Q295.0 242.7 295.4 241.9Q295.8 241.2 295.8 240.1ZM302.0 225.2L306.5 225.2L306.5 247.1L302.0 247.1L302.0 225.2ZM308.1 225.2L312.7 225.2L312.7 247.1L308.1 247.1L308.1 225.2Z M336.6 231.5L332.2 231.5Q332.1 230.2 331.1 229.5Q330.1 228.8 328.5 228.8L328.5 228.8Q327.4 228.8 326.6 229.1Q325.8 229.4 325.4 230.0Q325.0 230.5 325.0 231.2L325.0 231.2Q325.0 231.8 325.2 232.3Q325.5 232.7 326.0 233.0Q326.5 233.3 327.1 233.6Q327.7 233.8 328.4 233.9L328.4 233.9L330.4 234.4Q331.8 234.7 333.0 235.3Q334.2 235.8 335.1 236.6Q335.9 237.4 336.4 238.4Q336.9 239.5 336.9 240.8L336.9 240.8Q336.9 242.8 335.9 244.3Q334.9 245.8 333.0 246.6Q331.1 247.4 328.5 247.4L328.5 247.4Q325.8 247.4 323.9 246.6Q321.9 245.8 320.8 244.2Q319.7 242.6 319.7 240.2L319.7 240.2L324.1 240.2Q324.2 241.3 324.8 242.0Q325.3 242.8 326.3 243.1Q327.2 243.5 328.4 243.5L328.4 243.5Q329.6 243.5 330.4 243.2Q331.3 242.8 331.8 242.2Q332.3 241.6 332.3 240.8L332.3 240.8Q332.3 240.1 331.8 239.6Q331.4 239.1 330.6 238.7Q329.8 238.4 328.6 238.1L328.6 238.1L326.2 237.5Q323.4 236.8 321.8 235.4Q320.2 234.0 320.2 231.6L320.2 231.6Q320.2 229.6 321.3 228.1Q322.4 226.6 324.3 225.8Q326.1 224.9 328.5 224.9L328.5 224.9Q330.9 224.9 332.8 225.8Q334.6 226.6 335.6 228.1Q336.6 229.6 336.6 231.5L336.6 231.5ZM336.8 230.7L346.6 230.7L346.6 234.1L336.8 234.1L336.8 230.7ZM339.0 242.6L339.0 226.8L343.6 226.8L343.6 242.0Q343.6 242.7 343.8 243.0Q343.9 243.4 344.3 243.5Q344.6 243.6 345.1 243.6L345.1 243.6Q345.4 243.6 345.7 243.6Q346.1 243.5 346.2 243.5L346.2 243.5L346.9 246.9Q346.6 247.0 346.0 247.1Q345.4 247.3 344.5 247.3L344.5 247.3Q342.8 247.4 341.6 246.8Q340.4 246.3 339.7 245.3Q339.0 244.2 339.0 242.6L339.0 242.6ZM352.3 247.4L352.3 247.4Q350.7 247.4 349.5 246.8Q348.2 246.3 347.5 245.2Q346.8 244.1 346.8 242.5L346.8 242.5Q346.8 241.1 347.3 240.2Q347.8 239.3 348.7 238.7Q349.5 238.1 350.7 237.9Q351.8 237.6 353.0 237.5L353.0 237.5Q354.4 237.3 355.3 237.2Q356.1 237.0 356.5 236.8Q356.9 236.5 356.9 236.0L356.9 236.0L356.9 235.9Q356.9 234.9 356.3 234.4Q355.7 233.8 354.5 233.8L354.5 233.8Q353.3 233.8 352.6 234.3Q351.8 234.9 351.6 235.7L351.6 235.7L347.4 235.3Q347.7 233.9 348.7 232.8Q349.6 231.7 351.1 231.1Q352.6 230.5 354.5 230.5L354.5 230.5Q355.9 230.5 357.1 230.8Q358.4 231.1 359.4 231.8Q360.3 232.5 360.9 233.5Q361.5 234.6 361.5 236.0L361.5 236.0L361.5 247.1L357.2 247.1L357.2 244.8L357.0 244.8Q356.6 245.6 356.0 246.1Q355.3 246.7 354.4 247.0Q353.5 247.4 352.3 247.4ZM353.6 244.2L353.6 244.2Q354.6 244.2 355.3 243.8Q356.1 243.4 356.5 242.8Q357.0 242.1 357.0 241.2L357.0 241.2L357.0 239.5Q356.8 239.6 356.4 239.7Q356.0 239.8 355.6 239.9Q355.1 240.0 354.6 240.1Q354.2 240.2 353.8 240.2L353.8 240.2Q353.0 240.3 352.4 240.6Q351.8 240.8 351.5 241.3Q351.2 241.7 351.2 242.3L351.2 242.3Q351.2 243.3 351.8 243.8Q352.5 244.2 353.6 244.2ZM370.4 247.4L370.4 247.4Q367.9 247.4 366.1 246.3Q364.3 245.2 363.3 243.3Q362.3 241.4 362.3 238.9L362.3 238.9Q362.3 236.4 363.3 234.5Q364.3 232.6 366.1 231.6Q367.9 230.5 370.4 230.5L370.4 230.5Q372.5 230.5 374.1 231.3Q375.7 232.0 376.7 233.4Q377.6 234.9 377.7 236.8L377.7 236.8L373.4 236.8Q373.2 235.5 372.5 234.8Q371.7 234.0 370.4 234.0L370.4 234.0Q369.4 234.0 368.6 234.6Q367.8 235.2 367.4 236.2Q366.9 237.3 366.9 238.9L366.9 238.9Q366.9 240.4 367.4 241.5Q367.8 242.6 368.6 243.2Q369.4 243.8 370.4 243.8L370.4 243.8Q371.2 243.8 371.8 243.5Q372.5 243.2 372.9 242.5Q373.3 241.9 373.4 241.1L373.4 241.1L377.7 241.1Q377.6 242.9 376.7 244.4Q375.8 245.8 374.2 246.6Q372.6 247.4 370.4 247.4ZM385.7 238.9L382.7 242.4L382.7 236.9L383.4 236.9L388.6 230.7L393.9 230.7L386.8 238.9L385.7 238.9ZM383.2 247.1L378.6 247.1L378.6 225.2L383.2 225.2L383.2 247.1ZM394.2 247.1L388.8 247.1L384.0 239.9L387.1 236.7L394.2 247.1Z M406.8 247.1L406.8 247.1L399.1 247.1L399.1 225.2L406.9 225.2Q410.2 225.2 412.6 226.5Q415.0 227.9 416.2 230.3Q417.5 232.7 417.5 236.1L417.5 236.1Q417.5 239.5 416.2 242.0Q415.0 244.4 412.6 245.8Q410.2 247.1 406.8 247.1ZM403.7 229.2L403.7 243.1L406.7 243.1Q408.7 243.1 410.1 242.4Q411.5 241.7 412.2 240.1Q412.9 238.6 412.9 236.1L412.9 236.1Q412.9 233.7 412.2 232.2Q411.5 230.6 410.1 229.9Q408.7 229.2 406.7 229.2L406.7 229.2L403.7 229.2ZM426.3 247.4L426.3 247.4Q423.8 247.4 422.0 246.4Q420.1 245.3 419.2 243.4Q418.2 241.5 418.2 239.0L418.2 239.0Q418.2 236.4 419.2 234.5Q420.1 232.6 421.9 231.6Q423.7 230.5 426.1 230.5L426.1 230.5Q427.7 230.5 429.1 231.0Q430.5 231.5 431.6 232.6Q432.6 233.6 433.2 235.1Q433.8 236.7 433.8 238.8L433.8 238.8L433.8 240.0L420.0 240.0L420.0 237.2L429.5 237.2Q429.5 236.2 429.1 235.5Q428.7 234.7 427.9 234.3Q427.2 233.9 426.2 233.9L426.2 233.9Q425.2 233.9 424.4 234.3Q423.6 234.8 423.1 235.6Q422.7 236.4 422.7 237.4L422.7 237.4L422.7 240.1Q422.7 241.3 423.1 242.2Q423.6 243.0 424.4 243.5Q425.2 244.0 426.4 244.0L426.4 244.0Q427.1 244.0 427.8 243.8Q428.4 243.6 428.8 243.1Q429.3 242.7 429.5 242.1L429.5 242.1L433.7 242.4Q433.4 243.9 432.4 245.0Q431.4 246.1 429.9 246.8Q428.3 247.4 426.3 247.4ZM444.8 230.7L449.6 230.7L443.8 247.1L438.7 247.1L433.0 230.7L437.8 230.7L441.2 242.4L441.4 242.4L444.8 230.7ZM456.8 247.4L456.8 247.4Q454.3 247.4 452.5 246.4Q450.6 245.3 449.7 243.4Q448.7 241.5 448.7 239.0L448.7 239.0Q448.7 236.4 449.7 234.5Q450.6 232.6 452.4 231.6Q454.2 230.5 456.6 230.5L456.6 230.5Q458.2 230.5 459.6 231.0Q461.0 231.5 462.1 232.6Q463.1 233.6 463.7 235.1Q464.3 236.7 464.3 238.8L464.3 238.8L464.3 240.0L450.5 240.0L450.5 237.2L460.0 237.2Q460.0 236.2 459.6 235.5Q459.2 234.7 458.4 234.3Q457.7 233.9 456.7 233.9L456.7 233.9Q455.7 233.9 454.9 234.3Q454.1 234.8 453.6 235.6Q453.2 236.4 453.2 237.4L453.2 237.4L453.2 240.1Q453.2 241.3 453.6 242.2Q454.1 243.0 454.9 243.5Q455.7 244.0 456.9 244.0L456.9 244.0Q457.6 244.0 458.3 243.8Q458.9 243.6 459.3 243.1Q459.8 242.7 460.0 242.1L460.0 242.1L464.2 242.4Q463.9 243.9 462.9 245.0Q461.9 246.1 460.4 246.8Q458.8 247.4 456.8 247.4ZM465.3 225.2L469.8 225.2L469.8 247.1L465.3 247.1L465.3 225.2ZM478.8 247.4L478.8 247.4Q476.4 247.4 474.5 246.3Q472.7 245.3 471.8 243.4Q470.8 241.5 470.8 238.9L470.8 238.9Q470.8 236.4 471.8 234.5Q472.7 232.6 474.5 231.5Q476.4 230.5 478.8 230.5L478.8 230.5Q481.3 230.5 483.1 231.5Q484.9 232.6 485.9 234.5Q486.9 236.4 486.9 238.9L486.9 238.9Q486.9 241.5 485.9 243.4Q484.9 245.3 483.1 246.3Q481.3 247.4 478.8 247.4ZM478.9 243.9L478.9 243.9Q480.0 243.9 480.7 243.2Q481.5 242.6 481.9 241.5Q482.3 240.3 482.3 238.9L482.3 238.9Q482.3 237.5 481.9 236.4Q481.5 235.2 480.7 234.6Q480.0 233.9 478.9 233.9L478.9 233.9Q477.7 233.9 476.9 234.6Q476.2 235.2 475.8 236.4Q475.4 237.5 475.4 238.9L475.4 238.9Q475.4 240.3 475.8 241.5Q476.2 242.6 476.9 243.2Q477.7 243.9 478.9 243.9ZM492.4 253.2L487.8 253.2L487.8 230.7L492.3 230.7L492.3 233.4L492.5 233.4Q492.8 232.8 493.4 232.1Q494.0 231.4 494.9 230.9Q495.8 230.5 497.2 230.5L497.2 230.5Q499.0 230.5 500.5 231.4Q502.0 232.4 502.9 234.2Q503.8 236.1 503.8 238.9L503.8 238.9Q503.8 241.6 502.9 243.5Q502.0 245.4 500.5 246.4Q499.0 247.3 497.2 247.3L497.2 247.3Q495.8 247.3 494.9 246.9Q494.0 246.5 493.4 245.8Q492.8 245.1 492.5 244.4L492.5 244.4L492.4 244.4L492.4 253.2ZM492.3 238.9L492.3 238.9Q492.3 240.3 492.7 241.4Q493.1 242.5 493.9 243.1Q494.6 243.7 495.7 243.7L495.7 243.7Q496.8 243.7 497.6 243.1Q498.4 242.5 498.8 241.4Q499.2 240.3 499.2 238.9L499.2 238.9Q499.2 237.5 498.8 236.4Q498.4 235.3 497.6 234.7Q496.9 234.1 495.7 234.1L495.7 234.1Q494.6 234.1 493.9 234.7Q493.1 235.3 492.7 236.3Q492.3 237.4 492.3 238.9ZM512.3 247.4L512.3 247.4Q509.8 247.4 507.9 246.4Q506.1 245.3 505.1 243.4Q504.2 241.5 504.2 239.0L504.2 239.0Q504.2 236.4 505.1 234.5Q506.1 232.6 507.9 231.6Q509.7 230.5 512.1 230.5L512.1 230.5Q513.7 230.5 515.1 231.0Q516.5 231.5 517.6 232.6Q518.6 233.6 519.2 235.1Q519.8 236.7 519.8 238.8L519.8 238.8L519.8 240.0L506.0 240.0L506.0 237.2L515.5 237.2Q515.5 236.2 515.1 235.5Q514.7 234.7 513.9 234.3Q513.2 233.9 512.2 233.9L512.2 233.9Q511.1 233.9 510.3 234.3Q509.6 234.8 509.1 235.6Q508.7 236.4 508.6 237.4L508.6 237.4L508.6 240.1Q508.6 241.3 509.1 242.2Q509.6 243.0 510.4 243.5Q511.2 244.0 512.4 244.0L512.4 244.0Q513.1 244.0 513.7 243.8Q514.4 243.6 514.8 243.1Q515.3 242.7 515.5 242.1L515.5 242.1L519.7 242.4Q519.4 243.9 518.4 245.0Q517.4 246.1 515.9 246.8Q514.3 247.4 512.3 247.4ZM525.3 247.1L520.8 247.1L520.8 230.7L525.2 230.7L525.2 233.6L525.3 233.6Q525.8 232.0 526.8 231.2Q527.9 230.5 529.3 230.5L529.3 230.5Q529.6 230.5 530.0 230.5Q530.4 230.5 530.7 230.6L530.7 230.6L530.7 234.7Q530.4 234.6 529.8 234.5Q529.2 234.4 528.8 234.4L528.8 234.4Q527.8 234.4 527.0 234.8Q526.2 235.3 525.7 236.0Q525.3 236.8 525.3 237.8L525.3 237.8L525.3 247.1Z "/></clipPath><defs><pattern id="satori_pattern_id-1_0" x="0" y="0" width="1" height="1" patternUnits="objectBoundingBox"><linearGradient id="satori_biid-1_0" x1="0" y1="0" x2="1" y2="0"><stop offset="0%" stop-color="rgb(0, 124, 240)"/><stop offset="100%" stop-color="rgb(0, 223, 216)"/></linearGradient><rect x="0" y="0" width="262" height="36" fill="url(#satori_biid-1_0)"/></pattern></defs><mask id="satori_om-id-1"><rect x="269" y="218" width="262" height="36" fill="#fff"/></mask><rect x="269" y="218" width="262" height="36" fill="url(#satori_pattern_id-1_0)" clip-path="url(#satori_bct-id-1)"/></svg>